<?xml version="1.0" standalone="no"?>
<!DOCTYPE svg PUBLIC "-//W3C//DTD SVG 20010904//EN"
 "http://www.w3.org/TR/2001/REC-SVG-20010904/DTD/svg10.dtd">
<svg version="1.0" xmlns="http://www.w3.org/2000/svg"
 width="511.000000pt" height="441.000000pt" viewBox="0 0 511.000000 441.000000"
 preserveAspectRatio="xMidYMid meet">

<g transform="translate(0.000000,441.000000) scale(0.100000,-0.100000)"
fill="#000000" stroke="none">
<path d="M2245 4274 c-551 -86 -1026 -366 -1355 -799 -210 -276 -333 -567
-401 -945 -19 -101 -19 -508 -1 -610 8 -41 27 -128 43 -192 210 -843 922
-1464 1789 -1559 133 -15 434 -6 555 15 648 117 1188 507 1489 1078 159 300
236 614 236 963 0 427 -113 799 -348 1151 -328 490 -840 811 -1433 898 -133
20 -447 20 -574 0z m431 -244 c491 -40 931 -265 1242 -635 355 -422 499 -975
396 -1517 -90 -474 -393 -918 -809 -1183 -650 -414 -1526 -360 -2115 131 -251
209 -432 460 -545 754 -129 333 -153 743 -64 1092 187 740 834 1291 1594 1357
144 12 159 12 301 1z"/>
<path d="M2420 3903 c-226 -23 -419 -77 -605 -168 -135 -66 -295 -170 -320
-208 -7 -12 -19 -60 -24 -106 -8 -58 -19 -97 -36 -125 -26 -43 -60 -86 -68
-86 -3 0 -8 17 -12 38 -9 48 -31 82 -54 82 -10 0 -37 -25 -63 -57 -196 -252
-319 -524 -368 -818 -31 -179 -25 -403 15 -584 143 -663 681 -1184 1341 -1302
169 -30 395 -30 563 0 131 23 305 75 407 121 l61 27 6 129 c6 128 6 129 -21
168 -39 56 -73 78 -131 84 -37 3 -58 0 -77 -13 -14 -9 -28 -14 -31 -11 -3 2
-8 43 -10 90 -5 81 -4 88 21 124 21 31 26 50 26 97 0 55 3 61 45 109 80 90 89
98 145 125 49 23 67 26 167 26 91 0 115 -3 129 -17 15 -15 21 -15 85 3 95 26
141 25 177 -6 l30 -25 53 25 c30 14 70 25 89 25 l35 0 -45 -26 c-52 -30 -57
-36 -65 -87 -9 -49 6 -67 56 -67 31 0 39 -4 39 -19 0 -10 7 -24 15 -31 13 -11
22 2 64 91 110 235 150 407 158 674 5 166 2 206 -17 320 -12 72 -38 180 -57
240 -36 112 -130 321 -140 312 -3 -3 -8 -29 -12 -58 l-6 -52 -32 52 c-36 57
-56 70 -85 52 -17 -11 -22 -6 -48 53 -32 69 -59 96 -100 96 -22 0 -30 11 -72
113 l-47 112 -60 6 c-33 3 -67 11 -75 18 -8 7 -27 41 -42 76 l-28 65 -68 0
c-88 0 -112 10 -180 77 -54 54 -57 55 -89 44 -54 -19 -79 -13 -155 34 -65 41
-77 45 -113 39 -78 -12 -104 0 -142 66 l-34 59 -80 -1 c-44 -1 -96 -3 -115 -5z
m300 -370 c30 -9 80 -17 110 -17 l55 -1 14 -41 14 -41 47 5 47 4 13 -46 c12
-45 12 -47 -14 -71 -30 -28 -31 -35 -11 -101 20 -65 19 -71 -10 -78 -14 -4
-25 -13 -25 -21 0 -19 -9 -19 -34 0 -11 8 -30 15 -42 15 -15 0 -24 8 -28 25
-5 21 -12 25 -40 25 -30 0 -36 4 -46 35 -10 32 -15 35 -49 35 -33 0 -41 5 -62
38 -22 34 -29 38 -87 45 -36 5 -62 14 -62 20 0 33 23 88 44 104 13 11 26 28
30 39 7 21 39 42 66 43 8 1 40 -7 70 -16z m-347 -166 c18 -8 39 -22 47 -32 14
-16 13 -17 -6 -11 -14 4 -26 0 -38 -13 -29 -32 -13 -104 32 -146 l36 -34 -24
-26 -24 -25 23 -47 c21 -44 22 -48 5 -60 -10 -7 -32 -15 -49 -19 -29 -5 -32
-11 -59 -97 -23 -75 -27 -101 -22 -150 3 -33 8 -63 11 -65 3 -3 32 2 65 11 89
25 131 22 162 -10 15 -16 31 -40 37 -55 9 -23 17 -28 43 -28 60 0 61 7 17 115
-112 271 -141 416 -93 456 11 9 16 6 25 -19 13 -38 36 -46 85 -33 32 9 45 7
86 -12 51 -23 61 -41 29 -50 -37 -9 -78 -107 -55 -129 3 -3 29 0 57 8 72 19
77 18 90 -16 11 -29 13 -30 59 -24 59 8 104 -9 123 -47 19 -35 20 -68 3 -51
-7 7 -23 12 -35 12 -20 0 -35 -7 -81 -36 -2 -1 3 -26 11 -57 12 -44 12 -60 2
-84 -7 -17 -18 -33 -23 -37 -6 -4 -3 -31 8 -77 10 -39 16 -77 13 -85 -2 -7
-25 -21 -49 -30 -27 -10 -43 -22 -40 -29 2 -7 7 -33 11 -58 6 -42 4 -48 -29
-84 -26 -30 -40 -57 -51 -107 -19 -83 -12 -127 28 -173 l30 -35 -33 4 c-26 2
-41 13 -66 45 -18 23 -34 46 -35 52 -6 15 -244 -6 -280 -25 -17 -8 -39 -29
-50 -47 -29 -47 -23 -140 14 -195 35 -54 89 -94 128 -95 28 -2 33 2 41 29 8
32 28 44 75 44 20 0 22 -4 17 -30 -4 -16 -4 -41 0 -54 6 -24 9 -25 50 -20 39
6 46 4 59 -17 9 -13 19 -42 22 -64 4 -22 18 -60 31 -84 l24 -44 -36 6 c-47 8
-69 29 -90 83 -9 24 -20 44 -24 44 -3 0 -30 -7 -59 -16 -58 -17 -87 -12 -96
17 -8 23 -7 23 -69 4 -74 -22 -111 -20 -134 10 -14 18 -29 25 -55 25 -40 0
-52 12 -77 77 -12 32 -25 49 -41 54 -13 4 -50 15 -81 24 -65 18 -79 33 -112
125 -18 50 -33 69 -91 120 -39 33 -74 60 -78 60 -22 0 -100 68 -126 109 -50
79 -50 143 0 190 20 18 23 33 26 109 3 79 1 93 -22 137 -24 45 -25 51 -14 95
7 26 9 55 6 64 -8 19 -47 36 -87 36 -24 0 -33 9 -65 65 -34 62 -38 65 -73 64
-20 0 -59 -4 -87 -9 -27 -4 -51 -7 -53 -5 -7 7 49 128 82 178 45 68 96 108
145 114 32 4 43 0 76 -28 21 -19 49 -56 61 -83 23 -50 23 -50 96 -68 122 -29
121 -29 133 58 10 67 14 70 40 38 22 -28 23 -28 74 -16 73 17 89 15 96 -9 4
-11 20 -36 37 -55 25 -29 37 -34 73 -34 27 0 51 7 66 19 22 18 24 28 30 143 4
92 2 127 -7 137 -10 11 -16 12 -27 3 -18 -15 -27 -5 -27 29 0 42 10 60 44 75
39 17 49 17 89 1z"/>
</g>
</svg>
